<svg width="24" height="23" viewBox="0 0 24 23" fill="none" xmlns="http://www.w3.org/2000/svg">
<path d="M23 4.3145H20.5556M23 11.5H16.8889M23 18.6855H16.8889M5.88889 21.0806V13.3696C5.88889 13.1206 5.88889 12.996 5.86393 12.8768C5.8418 12.7712 5.80518 12.6689 5.75508 12.5728C5.6986 12.4645 5.61919 12.3673 5.46037 12.1727L1.42852 7.23452C1.2697 7.03999 1.19029 6.94273 1.13381 6.83442C1.08371 6.73832 1.04709 6.63604 1.02496 6.53034C1 6.4112 1 6.28664 1 6.03752V3.83547C1 3.16477 1 2.82941 1.13321 2.57323C1.2504 2.3479 1.43737 2.16469 1.66735 2.04987C1.92879 1.91934 2.27105 1.91934 2.95556 1.91934H13.7111C14.3957 1.91934 14.7379 1.91934 14.9993 2.04987C15.2294 2.16469 15.4162 2.3479 15.5334 2.57323C15.6667 2.82941 15.6667 3.16477 15.6667 3.83547V6.03752C15.6667 6.28664 15.6667 6.4112 15.6417 6.53034C15.6196 6.63604 15.5829 6.73832 15.5328 6.83442C15.4764 6.94273 15.3969 7.03999 15.2382 7.23452L11.2063 12.1727C11.0475 12.3673 10.9681 12.4645 10.9116 12.5728C10.8615 12.6689 10.8248 12.7712 10.8027 12.8768C10.7778 12.996 10.7778 13.1206 10.7778 13.3696V17.4879L5.88889 21.0806Z" stroke="#3D5894" stroke-width="2" stroke-linecap="round" stroke-linejoin="round"/>
</svg>
