<svg width="98" height="67" viewBox="0 0 98 67" fill="none" xmlns="http://www.w3.org/2000/svg">
<g filter="url(#filter0_d_12_548)">
<mask id="path-1-inside-1_12_548" fill="white">
<path d="M18.35 0.499999H18.5C19.3333 0.933333 19.75 1.41667 19.75 1.95L18.5 11.45C18.5 14.9167 19.5333 22.1 21.6 33L24.1 39.25C24.1 39.6833 23.75 40.1667 23.05 40.7H22.1C21.4333 40.5 20.4333 38.45 19.1 34.55C18.2333 31.4167 17.3667 26.5833 16.5 20.05H16.2C14.2667 25.7833 12.9 28.75 12.1 28.95L11.3 29.15C10.6 29.15 9.73333 27.7833 8.7 25.05H8.35C7.95 33.2833 7.16667 37.4 6 37.4H5.85C4.78333 37.4 4.2 36.5667 4.1 34.9C4.93333 31.7 5.35 28.3667 5.35 24.9L4 11.65V10.7C4 9.43333 4.45 8.8 5.35 8.8C6.65 8.8 7.8 11.35 8.8 16.45C10.2667 21.0833 11.1667 23.5833 11.5 23.95C12.2667 22.75 13.0333 20.6167 13.8 17.55C14.4 15.9833 14.9833 13.5333 15.55 10.2L15.35 10.05L15.55 9.25V8.95C15.85 3.31667 16.7833 0.499999 18.35 0.499999ZM27.2785 22C28.4452 22 29.2452 24.5667 29.6785 29.7C30.2452 32.0667 30.6618 33.25 30.9285 33.25H31.2285C32.0618 31.15 32.4785 29.0667 32.4785 27L32.1785 23.55C32.5452 22.65 33.0618 22.2 33.7285 22.2C34.9618 22.2 35.5785 24.3833 35.5785 28.75C36.3118 33.2833 36.6785 37.5 36.6785 41.4V43.75C36.6785 50.9167 34.6452 55.75 30.5785 58.25L29.4785 58.45C27.5785 58.45 25.8118 56.6833 24.1785 53.15L23.7285 50.15V50C23.7285 47.8 24.3452 46.7 25.5785 46.7L26.8285 47.5L26.6785 50.65C26.6785 52.1833 27.4618 53.7333 29.0285 55.3H29.6785C31.5118 55.3 32.8618 51.8 33.7285 44.8L33.8285 41.9C33.7952 38.5333 33.6618 36.3833 33.4285 35.45C32.0952 36.6167 31.0452 37.2 30.2785 37.2C28.5785 37.2 27.0618 32.65 25.7285 23.55L25.5785 23.45C25.5785 22.6833 26.1452 22.2 27.2785 22ZM41.2609 11.45C42.0609 11.45 42.5776 12.7 42.8109 15.2L43.0109 17.9C43.0109 19.9333 42.6443 25.2333 41.9109 33.8H42.2109V33.95L42.4109 33.8H42.8109L48.6609 34.25H49.0609L51.5609 33.5H51.9109C52.4443 33.8333 52.8109 34.3 53.0109 34.9C53.0109 36.1667 51.5943 36.95 48.7609 37.25L43.6609 36.75H42.7109L40.3109 37.4C39.4109 37.0667 38.9609 36.5333 38.9609 35.8L40.0109 18.65V17.9L39.7109 12.9C39.7109 12.0667 40.2276 11.5833 41.2609 11.45ZM55.2824 10.95C56.5491 11.2167 57.1824 11.7833 57.1824 12.65C56.8491 13.5833 56.3158 14.05 55.5824 14.05C54.3491 13.8167 53.7324 13.2 53.7324 12.2C54.0658 11.3667 54.5824 10.95 55.2824 10.95ZM57.1824 17.95C57.7158 17.95 58.1658 18.4333 58.5324 19.4L58.0824 22.95V25.3C58.0824 28.0333 58.5491 31.6167 59.4824 36.05C59.1491 36.6833 58.5824 37 57.7824 37C56.4158 37 55.5158 33 55.0824 25V23.25C55.0824 19.7167 55.7824 17.95 57.1824 17.95ZM72.1055 16.75C73.0055 16.75 73.6221 18.2667 73.9555 21.3C73.6221 22.1333 73.0721 22.55 72.3055 22.55C71.7721 22.45 71.2388 21.8333 70.7055 20.7L69.8055 20.4C68.2388 20.4 66.8221 21.4333 65.5555 23.5V23.95C65.5555 24.45 67.9055 25.2833 72.6055 26.45C74.5721 27.6167 75.5555 29.0333 75.5555 30.7C75.5555 33.4333 73.3555 35.7667 68.9555 37.7L67.1055 38C64.3055 37.7 62.9055 36.3 62.9055 33.8V33.65C62.9055 32.85 63.4221 32.3833 64.4555 32.25C65.2555 32.25 65.7888 33.0833 66.0555 34.75L66.4555 35.05H67.3055C69.2055 35.05 70.9721 33.75 72.6055 31.15V30.5C72.6055 29.5 70.4221 28.5667 66.0555 27.7C63.7555 26.7667 62.6055 25.4667 62.6055 23.8C62.6055 21.6333 64.4221 19.6 68.0555 17.7C69.6555 17.5 71.0055 17.1833 72.1055 16.75ZM83.2875 6.65C84.2208 6.85 84.6875 7.31667 84.6875 8.05L84.3875 10.25V10.9C84.3875 12.3667 84.5542 13.9167 84.8875 15.55H84.9875C88.8542 14.3833 91.2542 13.8 92.1875 13.8C93.1542 14.0667 93.6375 14.55 93.6375 15.25C93.6375 16.3833 92.4875 16.95 90.1875 16.95L84.9875 18.8C84.9875 23.3 85.4708 29.4167 86.4375 37.15C86.2375 38.05 85.7542 38.5 84.9875 38.5H84.8875C83.7208 38.5 83.1375 37 83.1375 34C82.7042 31.7667 82.3375 26.9167 82.0375 19.45H81.1375C78.0042 19.25 76.4375 18.5167 76.4375 17.25C76.4375 16.8833 76.7875 16.4333 77.4875 15.9H77.9875L80.2875 16.5H81.8875L81.4375 10.25C81.4375 7.85 82.0542 6.65 83.2875 6.65Z"/>
</mask>
<path d="M18.35 0.499999H18.5C19.3333 0.933333 19.75 1.41667 19.75 1.95L18.5 11.45C18.5 14.9167 19.5333 22.1 21.6 33L24.1 39.25C24.1 39.6833 23.75 40.1667 23.05 40.7H22.1C21.4333 40.5 20.4333 38.45 19.1 34.55C18.2333 31.4167 17.3667 26.5833 16.5 20.05H16.2C14.2667 25.7833 12.9 28.75 12.1 28.95L11.3 29.15C10.6 29.15 9.73333 27.7833 8.7 25.05H8.35C7.95 33.2833 7.16667 37.4 6 37.4H5.85C4.78333 37.4 4.2 36.5667 4.1 34.9C4.93333 31.7 5.35 28.3667 5.35 24.9L4 11.65V10.7C4 9.43333 4.45 8.8 5.35 8.8C6.65 8.8 7.8 11.35 8.8 16.45C10.2667 21.0833 11.1667 23.5833 11.5 23.95C12.2667 22.75 13.0333 20.6167 13.8 17.55C14.4 15.9833 14.9833 13.5333 15.55 10.2L15.35 10.05L15.55 9.25V8.95C15.85 3.31667 16.7833 0.499999 18.35 0.499999ZM27.2785 22C28.4452 22 29.2452 24.5667 29.6785 29.7C30.2452 32.0667 30.6618 33.25 30.9285 33.25H31.2285C32.0618 31.15 32.4785 29.0667 32.4785 27L32.1785 23.55C32.5452 22.65 33.0618 22.2 33.7285 22.2C34.9618 22.2 35.5785 24.3833 35.5785 28.75C36.3118 33.2833 36.6785 37.5 36.6785 41.4V43.75C36.6785 50.9167 34.6452 55.75 30.5785 58.25L29.4785 58.45C27.5785 58.45 25.8118 56.6833 24.1785 53.15L23.7285 50.15V50C23.7285 47.8 24.3452 46.7 25.5785 46.7L26.8285 47.5L26.6785 50.65C26.6785 52.1833 27.4618 53.7333 29.0285 55.3H29.6785C31.5118 55.3 32.8618 51.8 33.7285 44.8L33.8285 41.9C33.7952 38.5333 33.6618 36.3833 33.4285 35.45C32.0952 36.6167 31.0452 37.2 30.2785 37.2C28.5785 37.2 27.0618 32.65 25.7285 23.55L25.5785 23.45C25.5785 22.6833 26.1452 22.2 27.2785 22ZM41.2609 11.45C42.0609 11.45 42.5776 12.7 42.8109 15.2L43.0109 17.9C43.0109 19.9333 42.6443 25.2333 41.9109 33.8H42.2109V33.95L42.4109 33.8H42.8109L48.6609 34.25H49.0609L51.5609 33.5H51.9109C52.4443 33.8333 52.8109 34.3 53.0109 34.9C53.0109 36.1667 51.5943 36.95 48.7609 37.25L43.6609 36.75H42.7109L40.3109 37.4C39.4109 37.0667 38.9609 36.5333 38.9609 35.8L40.0109 18.65V17.9L39.7109 12.9C39.7109 12.0667 40.2276 11.5833 41.2609 11.45ZM55.2824 10.95C56.5491 11.2167 57.1824 11.7833 57.1824 12.65C56.8491 13.5833 56.3158 14.05 55.5824 14.05C54.3491 13.8167 53.7324 13.2 53.7324 12.2C54.0658 11.3667 54.5824 10.95 55.2824 10.95ZM57.1824 17.95C57.7158 17.95 58.1658 18.4333 58.5324 19.4L58.0824 22.95V25.3C58.0824 28.0333 58.5491 31.6167 59.4824 36.05C59.1491 36.6833 58.5824 37 57.7824 37C56.4158 37 55.5158 33 55.0824 25V23.25C55.0824 19.7167 55.7824 17.95 57.1824 17.95ZM72.1055 16.75C73.0055 16.75 73.6221 18.2667 73.9555 21.3C73.6221 22.1333 73.0721 22.55 72.3055 22.55C71.7721 22.45 71.2388 21.8333 70.7055 20.7L69.8055 20.4C68.2388 20.4 66.8221 21.4333 65.5555 23.5V23.95C65.5555 24.45 67.9055 25.2833 72.6055 26.45C74.5721 27.6167 75.5555 29.0333 75.5555 30.7C75.5555 33.4333 73.3555 35.7667 68.9555 37.7L67.1055 38C64.3055 37.7 62.9055 36.3 62.9055 33.8V33.65C62.9055 32.85 63.4221 32.3833 64.4555 32.25C65.2555 32.25 65.7888 33.0833 66.0555 34.75L66.4555 35.05H67.3055C69.2055 35.05 70.9721 33.75 72.6055 31.15V30.5C72.6055 29.5 70.4221 28.5667 66.0555 27.7C63.7555 26.7667 62.6055 25.4667 62.6055 23.8C62.6055 21.6333 64.4221 19.6 68.0555 17.7C69.6555 17.5 71.0055 17.1833 72.1055 16.75ZM83.2875 6.65C84.2208 6.85 84.6875 7.31667 84.6875 8.05L84.3875 10.25V10.9C84.3875 12.3667 84.5542 13.9167 84.8875 15.55H84.9875C88.8542 14.3833 91.2542 13.8 92.1875 13.8C93.1542 14.0667 93.6375 14.55 93.6375 15.25C93.6375 16.3833 92.4875 16.95 90.1875 16.95L84.9875 18.8C84.9875 23.3 85.4708 29.4167 86.4375 37.15C86.2375 38.05 85.7542 38.5 84.9875 38.5H84.8875C83.7208 38.5 83.1375 37 83.1375 34C82.7042 31.7667 82.3375 26.9167 82.0375 19.45H81.1375C78.0042 19.25 76.4375 18.5167 76.4375 17.25C76.4375 16.8833 76.7875 16.4333 77.4875 15.9H77.9875L80.2875 16.5H81.8875L81.4375 10.25C81.4375 7.85 82.0542 6.65 83.2875 6.65Z" fill="#3D5894"/>
<path d="M18.5 0.499999L18.9614 -0.387218L18.7445 -0.500001H18.5V0.499999ZM19.75 1.95L20.7415 2.08045L20.75 2.01551V1.95H19.75ZM18.5 11.45L17.5085 11.3195L17.5 11.3845V11.45H18.5ZM21.6 33L20.6175 33.1863L20.6355 33.2815L20.6715 33.3714L21.6 33ZM24.1 39.25H25.1V39.0574L25.0285 38.8786L24.1 39.25ZM23.05 40.7V41.7H23.3875L23.656 41.4954L23.05 40.7ZM22.1 40.7L21.8127 41.6578L21.9532 41.7H22.1V40.7ZM19.1 34.55L18.1362 34.8166L18.1441 34.8453L18.1538 34.8735L19.1 34.55ZM16.5 20.05L17.4913 19.9185L17.3761 19.05H16.5V20.05ZM16.2 20.05V19.05H15.4819L15.2524 19.7305L16.2 20.05ZM12.1 28.95L11.8575 27.9799L11.8575 27.9799L12.1 28.95ZM11.3 29.15V30.15H11.4231L11.5425 30.1201L11.3 29.15ZM8.7 25.05L9.63539 24.6964L9.39103 24.05H8.7V25.05ZM8.35 25.05V24.05H7.3974L7.35118 25.0015L8.35 25.05ZM4.1 34.9L3.13228 34.648L3.09229 34.8015L3.1018 34.9599L4.1 34.9ZM5.35 24.9H6.35V24.8492L6.34485 24.7986L5.35 24.9ZM4 11.65H3V11.7008L3.00515 11.7514L4 11.65ZM8.8 16.45L7.81869 16.6424L7.82956 16.6979L7.84663 16.7518L8.8 16.45ZM11.5 23.95L10.7601 24.6227L11.6391 25.5896L12.3427 24.4884L11.5 23.95ZM13.8 17.55L12.8661 17.1924L12.8445 17.2488L12.8299 17.3075L13.8 17.55ZM15.55 10.2L16.5359 10.3676L16.6381 9.76609L16.15 9.4L15.55 10.2ZM15.35 10.05L14.3799 9.80746L14.2188 10.4516L14.75 10.85L15.35 10.05ZM15.55 9.25L16.5201 9.49254L16.55 9.37311V9.25H15.55ZM15.55 8.95L14.5514 8.89682L14.55 8.92339V8.95H15.55ZM18.35 0.499999V1.5H18.5V0.499999V-0.500001H18.35V0.499999ZM18.5 0.499999L18.0386 1.38722C18.391 1.57046 18.5841 1.72907 18.6801 1.84044C18.725 1.89258 18.7413 1.92583 18.7466 1.9386C18.7492 1.94503 18.7498 1.94813 18.7499 1.94846C18.7499 1.94872 18.75 1.94891 18.75 1.95H19.75H20.75C20.75 0.821378 19.866 0.0831862 18.9614 -0.387218L18.5 0.499999ZM19.75 1.95L18.7585 1.81954L17.5085 11.3195L18.5 11.45L19.4915 11.5805L20.7415 2.08045L19.75 1.95ZM18.5 11.45H17.5C17.5 15.0278 18.5547 22.3065 20.6175 33.1863L21.6 33L22.5825 32.8137C20.512 21.8935 19.5 14.8056 19.5 11.45H18.5ZM21.6 33L20.6715 33.3714L23.1715 39.6214L24.1 39.25L25.0285 38.8786L22.5285 32.6286L21.6 33ZM24.1 39.25H23.1C23.1 39.1898 23.1246 39.217 23.0276 39.351C22.9302 39.4855 22.7494 39.6719 22.444 39.9046L23.05 40.7L23.656 41.4954C24.0506 41.1948 24.3948 40.8728 24.6474 40.524C24.9004 40.1746 25.1 39.7436 25.1 39.25H24.1ZM23.05 40.7V39.7H22.1V40.7V41.7H23.05V40.7ZM22.1 40.7L22.3873 39.7422C22.5517 39.7915 22.5293 39.862 22.3411 39.6079C22.1847 39.3968 21.9864 39.0612 21.7488 38.5741C21.2759 37.6048 20.7083 36.1631 20.0462 34.2265L19.1 34.55L18.1538 34.8735C18.825 36.8369 19.4241 38.3702 19.9512 39.4509C20.2136 39.9888 20.4737 40.447 20.7339 40.7984C20.9624 41.1068 21.315 41.5085 21.8127 41.6578L22.1 40.7ZM19.1 34.55L20.0638 34.2834C19.2163 31.2195 18.3568 26.4425 17.4913 19.9185L16.5 20.05L15.5087 20.1815C16.3766 26.7241 17.2503 31.6138 18.1362 34.8166L19.1 34.55ZM16.5 20.05V19.05H16.2V20.05V21.05H16.5V20.05ZM16.2 20.05L15.2524 19.7305C14.2893 22.5867 13.4777 24.7219 12.8167 26.1566C12.4847 26.8774 12.2057 27.3881 11.9809 27.7166C11.8685 27.881 11.7871 27.9737 11.739 28.0192C11.6813 28.0738 11.7213 28.0139 11.8575 27.9799L12.1 28.95L12.3425 29.9201C12.6787 29.8361 12.9364 29.6398 13.1141 29.4714C13.3015 29.294 13.4732 29.0774 13.6316 28.8459C13.9485 28.3827 14.282 27.756 14.6333 26.9934C15.339 25.4614 16.1774 23.2467 17.1476 20.3695L16.2 20.05ZM12.1 28.95L11.8575 27.9799L11.0575 28.1799L11.3 29.15L11.5425 30.1201L12.3425 29.9201L12.1 28.95ZM11.3 29.15V28.15C11.4605 28.15 11.5007 28.2271 11.4011 28.1402C11.3064 28.0576 11.1599 27.8897 10.9695 27.5895C10.5906 26.992 10.1439 26.0415 9.63539 24.6964L8.7 25.05L7.76461 25.4036C8.28941 26.7918 8.79273 27.8914 9.28049 28.6605C9.52344 29.0436 9.78941 29.3883 10.0864 29.6473C10.3784 29.9021 10.7895 30.15 11.3 30.15V29.15ZM8.7 25.05V24.05H8.35V25.05V26.05H8.7V25.05ZM8.35 25.05L7.35118 25.0015C7.15172 29.107 6.85834 32.138 6.48013 34.1256C6.28926 35.1286 6.08827 35.8013 5.89939 36.2C5.80468 36.4 5.73924 36.4739 5.72659 36.486C5.72594 36.4867 5.82222 36.4 6 36.4V37.4V38.4C6.46945 38.4 6.84542 38.1847 7.11247 37.928C7.36753 37.6829 7.55783 37.3708 7.70686 37.0562C8.00548 36.4258 8.24407 35.5547 8.44487 34.4994C8.85 32.3704 9.14828 29.2263 9.34882 25.0985L8.35 25.05ZM6 37.4V36.4H5.85V37.4V38.4H6V37.4ZM5.85 37.4V36.4C5.62419 36.4 5.52575 36.3358 5.43173 36.2015C5.29382 36.0045 5.14351 35.5952 5.0982 34.8401L4.1 34.9L3.1018 34.9599C3.15649 35.8715 3.34785 36.7121 3.79327 37.3485C4.28259 38.0475 5.00915 38.4 5.85 38.4V37.4ZM4.1 34.9L5.06772 35.152C5.9235 31.8658 6.35 28.4476 6.35 24.9H5.35H4.35C4.35 28.2857 3.94317 31.5342 3.13228 34.648L4.1 34.9ZM5.35 24.9L6.34485 24.7986L4.99485 11.5486L4 11.65L3.00515 11.7514L4.35515 25.0014L5.35 24.9ZM4 11.65H5V10.7H4H3V11.65H4ZM4 10.7H5C5 10.1548 5.10232 9.92508 5.15268 9.85421C5.16968 9.83028 5.17812 9.82688 5.1841 9.82407C5.19529 9.81882 5.2419 9.8 5.35 9.8V8.8V7.8C4.63506 7.8 3.96658 8.07054 3.52232 8.69579C3.12268 9.25825 3 9.97857 3 10.7H4ZM5.35 8.8V9.8C5.31602 9.8 5.38799 9.77551 5.57577 9.97095C5.77058 10.1737 6.0113 10.5369 6.27591 11.1236C6.8031 12.2926 7.32316 14.1152 7.81869 16.6424L8.8 16.45L9.78131 16.2576C9.27684 13.6848 8.7219 11.6824 8.09909 10.3014C7.7887 9.61314 7.43567 9.02004 7.01798 8.5853C6.59326 8.14324 6.03398 7.8 5.35 7.8V8.8ZM8.8 16.45L7.84663 16.7518C8.58124 19.0725 9.17751 20.8704 9.63411 22.1387C9.86194 22.7716 10.0594 23.2849 10.2252 23.6702C10.3078 23.8623 10.3877 24.0345 10.4641 24.1793C10.5306 24.3053 10.6291 24.4786 10.7601 24.6227L11.5 23.95L12.2399 23.2773C12.2876 23.3297 12.285 23.3447 12.2328 23.2457C12.1904 23.1655 12.1338 23.046 12.0623 22.8798C11.9198 22.5485 11.7381 22.0784 11.5159 21.4613C11.0725 20.2296 10.4854 18.4608 9.75338 16.1482L8.8 16.45ZM11.5 23.95L12.3427 24.4884C13.2039 23.1403 14.0013 20.8679 14.7701 17.7925L13.8 17.55L12.8299 17.3075C12.0654 20.3655 11.3294 22.3597 10.6573 23.4116L11.5 23.95ZM13.8 17.55L14.7339 17.9076C15.3707 16.2448 15.9669 13.7144 16.5359 10.3676L15.55 10.2L14.5641 10.0324C13.9998 13.3522 13.4293 15.7218 12.8661 17.1924L13.8 17.55ZM15.55 10.2L16.15 9.4L15.95 9.25L15.35 10.05L14.75 10.85L14.95 11L15.55 10.2ZM15.35 10.05L16.3201 10.2925L16.5201 9.49254L15.55 9.25L14.5799 9.00746L14.3799 9.80746L15.35 10.05ZM15.55 9.25H16.55V8.95H15.55H14.55V9.25H15.55ZM15.55 8.95L16.5486 9.00318C16.6973 6.21081 17.0005 4.20592 17.4242 2.92704C17.6367 2.28574 17.8562 1.90091 18.0416 1.69194C18.2062 1.50658 18.3017 1.5 18.35 1.5V0.499999V-0.500001C17.615 -0.500001 17.0063 -0.154494 16.5459 0.36431C16.1063 0.859501 15.7799 1.53092 15.5258 2.29796C15.0162 3.83575 14.7027 6.05585 14.5514 8.89682L15.55 8.95ZM27.2785 22V21H27.191L27.1047 21.0152L27.2785 22ZM29.6785 29.7L28.6821 29.7841L28.6884 29.8594L28.706 29.9329L29.6785 29.7ZM31.2285 33.25V34.25H31.9075L32.158 33.6188L31.2285 33.25ZM32.4785 27H33.4785V26.9566L33.4748 26.9134L32.4785 27ZM32.1785 23.55L31.2524 23.1727L31.1614 23.3962L31.1823 23.6366L32.1785 23.55ZM35.5785 28.75H34.5785V28.8304L34.5913 28.9097L35.5785 28.75ZM30.5785 58.25L30.7574 59.2339L30.9422 59.2003L31.1022 59.1019L30.5785 58.25ZM29.4785 58.45V59.45H29.5687L29.6574 59.4339L29.4785 58.45ZM24.1785 53.15L23.1896 53.2983L23.2108 53.4398L23.2708 53.5696L24.1785 53.15ZM23.7285 50.15H22.7285V50.2246L22.7396 50.2983L23.7285 50.15ZM25.5785 46.7L26.1176 45.8577L25.8711 45.7H25.5785V46.7ZM26.8285 47.5L27.8274 47.5476L27.8549 46.9696L27.3676 46.6577L26.8285 47.5ZM26.6785 50.65L25.6796 50.6024L25.6785 50.6262V50.65H26.6785ZM29.0285 55.3L28.3214 56.0071L28.6143 56.3H29.0285V55.3ZM33.7285 44.8L34.7209 44.9229L34.7264 44.8788L34.7279 44.8345L33.7285 44.8ZM33.8285 41.9L34.8279 41.9345L34.8287 41.9123L34.8285 41.8901L33.8285 41.9ZM33.4285 35.45L34.3987 35.2075L34.0017 33.6197L32.77 34.6974L33.4285 35.45ZM25.7285 23.55L26.718 23.405L26.6534 22.9648L26.2832 22.7179L25.7285 23.55ZM25.5785 23.45H24.5785V23.9852L25.0238 24.282L25.5785 23.45ZM27.2785 22V23C27.1503 23 27.1566 22.9141 27.291 23.0895C27.4335 23.2754 27.6138 23.6289 27.7988 24.2226C28.1656 25.3994 28.467 27.2368 28.6821 29.7841L29.6785 29.7L30.675 29.6159C30.4567 27.0299 30.1414 25.0173 29.7082 23.6274C29.4933 22.9378 29.2277 22.3287 28.8785 21.873C28.5212 21.4067 27.9901 21 27.2785 21V22ZM29.6785 29.7L28.706 29.9329C28.9914 31.1248 29.2468 32.0529 29.4728 32.6946C29.5835 33.0091 29.7025 33.2998 29.8344 33.5282C29.8988 33.6397 29.9927 33.7834 30.1243 33.9114C30.243 34.0268 30.5171 34.25 30.9285 34.25V33.25V32.25C31.2732 32.25 31.4761 32.4362 31.5187 32.4777C31.5743 32.5317 31.5874 32.5645 31.5664 32.5281C31.5275 32.4607 31.4569 32.3076 31.3593 32.0304C31.1686 31.4888 30.9323 30.6418 30.651 29.4671L29.6785 29.7ZM30.9285 33.25V34.25H31.2285V33.25V32.25H30.9285V33.25ZM31.2285 33.25L32.158 33.6188C33.0336 31.4124 33.4785 29.2043 33.4785 27H32.4785H31.4785C31.4785 28.9291 31.0901 30.8876 30.299 32.8812L31.2285 33.25ZM32.4785 27L33.4748 26.9134L33.1748 23.4634L32.1785 23.55L31.1823 23.6366L31.4823 27.0866L32.4785 27ZM32.1785 23.55L33.1046 23.9273C33.4002 23.2018 33.6496 23.2 33.7285 23.2V22.2V21.2C32.4741 21.2 31.6902 22.0982 31.2524 23.1727L32.1785 23.55ZM33.7285 22.2V23.2C33.7291 23.2 33.7186 23.1987 33.7108 23.1947C33.7067 23.1926 33.7302 23.203 33.7749 23.2558C33.8753 23.3742 34.0181 23.6294 34.1537 24.1093C34.4235 25.0648 34.5785 26.5904 34.5785 28.75H35.5785H36.5785C36.5785 26.543 36.4252 24.7935 36.0784 23.5657C35.9056 22.9539 35.663 22.3904 35.3008 21.9629C34.9134 21.5057 34.3793 21.2 33.7285 21.2V22.2ZM35.5785 28.75L34.5913 28.9097C35.3176 33.3992 35.6785 37.5619 35.6785 41.4H36.6785H37.6785C37.6785 37.4381 37.3061 33.1674 36.5657 28.5903L35.5785 28.75ZM36.6785 41.4H35.6785V43.75H36.6785H37.6785V41.4H36.6785ZM36.6785 43.75H35.6785C35.6785 50.7563 33.6951 55.1602 30.0548 57.3981L30.5785 58.25L31.1022 59.1019C35.5953 56.3398 37.6785 51.077 37.6785 43.75H36.6785ZM30.5785 58.25L30.3996 57.2661L29.2996 57.4661L29.4785 58.45L29.6574 59.4339L30.7574 59.2339L30.5785 58.25ZM29.4785 58.45V57.45C28.8694 57.45 28.1927 57.175 27.4356 56.4179C26.6687 55.6509 25.8779 54.4431 25.0862 52.7304L24.1785 53.15L23.2708 53.5696C24.1124 55.3903 25.0217 56.8324 26.0214 57.8321C27.031 58.8417 28.1876 59.45 29.4785 59.45V58.45ZM24.1785 53.15L25.1675 53.0017L24.7175 50.0017L23.7285 50.15L22.7396 50.2983L23.1896 53.2983L24.1785 53.15ZM23.7285 50.15H24.7285V50H23.7285H22.7285V50.15H23.7285ZM23.7285 50H24.7285C24.7285 48.9607 24.8799 48.3412 25.0633 48.014C25.1465 47.8656 25.2239 47.7993 25.2802 47.7658C25.3354 47.733 25.4233 47.7 25.5785 47.7V46.7V45.7C25.117 45.7 24.6654 45.8045 24.2581 46.0467C23.8518 46.2882 23.5438 46.6344 23.3187 47.036C22.8855 47.8088 22.7285 48.8393 22.7285 50H23.7285ZM25.5785 46.7L25.0395 47.5423L26.2895 48.3423L26.8285 47.5L27.3676 46.6577L26.1176 45.8577L25.5785 46.7ZM26.8285 47.5L25.8296 47.4524L25.6796 50.6024L26.6785 50.65L27.6774 50.6976L27.8274 47.5476L26.8285 47.5ZM26.6785 50.65H25.6785C25.6785 52.5472 26.6509 54.3366 28.3214 56.0071L29.0285 55.3L29.7356 54.5929C28.2728 53.1301 27.6785 51.8195 27.6785 50.65H26.6785ZM29.0285 55.3V56.3H29.6785V55.3V54.3H29.0285V55.3ZM29.6785 55.3V56.3C30.4949 56.3 31.1736 55.8983 31.7027 55.3166C32.2181 54.7499 32.64 53.9656 32.999 53.0349C33.7188 51.1687 34.2847 48.4462 34.7209 44.9229L33.7285 44.8L32.7361 44.6771C32.3057 48.1538 31.7632 50.6813 31.133 52.3151C30.817 53.1344 30.5035 53.6626 30.2231 53.9709C29.9563 54.2642 29.7788 54.3 29.6785 54.3V55.3ZM33.7285 44.8L34.7279 44.8345L34.8279 41.9345L33.8285 41.9L32.8291 41.8655L32.7291 44.7655L33.7285 44.8ZM33.8285 41.9L34.8285 41.8901C34.7955 38.5572 34.6664 36.2785 34.3987 35.2075L33.4285 35.45L32.4584 35.6925C32.6573 36.4882 32.7949 38.5094 32.8286 41.9099L33.8285 41.9ZM33.4285 35.45L32.77 34.6974C32.134 35.254 31.597 35.643 31.1554 35.8883C30.7026 36.1399 30.4219 36.2 30.2785 36.2V37.2V38.2C30.9018 38.2 31.5295 37.9684 32.1267 37.6367C32.735 37.2987 33.3897 36.8127 34.087 36.2026L33.4285 35.45ZM30.2785 37.2V36.2C30.3424 36.2 30.1899 36.2441 29.8544 35.7696C29.5354 35.3183 29.1818 34.5725 28.8147 33.4713C28.0849 31.2818 27.3823 27.9394 26.718 23.405L25.7285 23.55L24.7391 23.695C25.408 28.2606 26.1305 31.7432 26.9173 34.1037C27.3086 35.2775 27.7362 36.2379 28.2213 36.9241C28.6901 37.5872 29.3646 38.2 30.2785 38.2V37.2ZM25.7285 23.55L26.2832 22.7179L26.1332 22.6179L25.5785 23.45L25.0238 24.282L25.1738 24.382L25.7285 23.55ZM25.5785 23.45H26.5785C26.5785 23.384 26.5901 23.3531 26.5955 23.341C26.6007 23.3297 26.6129 23.3071 26.6525 23.2733C26.7455 23.1939 26.9735 23.0693 27.4523 22.9848L27.2785 22L27.1047 21.0152C26.4502 21.1307 25.8282 21.3477 25.3546 21.7517C24.8411 22.1896 24.5785 22.7838 24.5785 23.45H25.5785ZM41.2609 11.45V10.45H41.1967L41.133 10.4582L41.2609 11.45ZM42.8109 15.2L43.8082 15.1261L43.8075 15.1166L43.8066 15.1071L42.8109 15.2ZM43.0109 17.9H44.0109V17.863L44.0082 17.8261L43.0109 17.9ZM41.9109 33.8L40.9146 33.7147L40.8217 34.8H41.9109V33.8ZM42.2109 33.8H43.2109V32.8H42.2109V33.8ZM42.2109 33.95H41.2109V35.95L42.8109 34.75L42.2109 33.95ZM42.4109 33.8V32.8H42.0776L41.8109 33L42.4109 33.8ZM42.8109 33.8L42.8876 32.8029L42.8493 32.8H42.8109V33.8ZM48.6609 34.25L48.5842 35.2471L48.6225 35.25H48.6609V34.25ZM49.0609 34.25V35.25H49.2077L49.3483 35.2078L49.0609 34.25ZM51.5609 33.5V32.5H51.4142L51.2736 32.5422L51.5609 33.5ZM51.9109 33.5L52.4409 32.652L52.1977 32.5H51.9109V33.5ZM53.0109 34.9H54.0109V34.7377L53.9596 34.5838L53.0109 34.9ZM48.7609 37.25L48.6634 38.2452L48.7648 38.2552L48.8662 38.2444L48.7609 37.25ZM43.6609 36.75L43.7585 35.7548L43.7098 35.75H43.6609V36.75ZM42.7109 36.75V35.75H42.5779L42.4495 35.7848L42.7109 36.75ZM40.3109 37.4L39.9636 38.3377L40.2636 38.4488L40.5724 38.3652L40.3109 37.4ZM38.9609 35.8L37.9628 35.7389L37.9609 35.7694V35.8H38.9609ZM40.0109 18.65L41.0091 18.7111L41.0109 18.6806V18.65H40.0109ZM40.0109 17.9H41.0109V17.87L41.0091 17.8401L40.0109 17.9ZM39.7109 12.9H38.7109V12.93L38.7127 12.9599L39.7109 12.9ZM41.2609 11.45V12.45C41.0194 12.45 41.1037 12.2358 41.3243 12.7695C41.5247 13.2545 41.7014 14.0727 41.8153 15.2929L42.8109 15.2L43.8066 15.1071C43.6872 13.8273 43.4888 12.7705 43.1726 12.0055C42.8765 11.2892 42.3025 10.45 41.2609 10.45V11.45ZM42.8109 15.2L41.8137 15.2739L42.0137 17.9739L43.0109 17.9L44.0082 17.8261L43.8082 15.1261L42.8109 15.2ZM43.0109 17.9H42.0109C42.0109 19.8805 41.6494 25.1305 40.9146 33.7147L41.9109 33.8L42.9073 33.8853C43.6391 25.3361 44.0109 19.9861 44.0109 17.9H43.0109ZM41.9109 33.8V34.8H42.2109V33.8V32.8H41.9109V33.8ZM42.2109 33.8H41.2109V33.95H42.2109H43.2109V33.8H42.2109ZM42.2109 33.95L42.8109 34.75L43.0109 34.6L42.4109 33.8L41.8109 33L41.6109 33.15L42.2109 33.95ZM42.4109 33.8V34.8H42.8109V33.8V32.8H42.4109V33.8ZM42.8109 33.8L42.7342 34.7971L48.5842 35.2471L48.6609 34.25L48.7376 33.2529L42.8876 32.8029L42.8109 33.8ZM48.6609 34.25V35.25H49.0609V34.25V33.25H48.6609V34.25ZM49.0609 34.25L49.3483 35.2078L51.8483 34.4578L51.5609 33.5L51.2736 32.5422L48.7736 33.2922L49.0609 34.25ZM51.5609 33.5V34.5H51.9109V33.5V32.5H51.5609V33.5ZM51.9109 33.5L51.3809 34.348C51.7159 34.5574 51.9353 34.8354 52.0623 35.2162L53.0109 34.9L53.9596 34.5838C53.6866 33.7646 53.1726 33.1093 52.4409 32.652L51.9109 33.5ZM53.0109 34.9H52.0109C52.0109 35.0651 51.9576 35.2897 51.4645 35.5624C50.9303 35.8578 50.0251 36.1106 48.6556 36.2556L48.7609 37.25L48.8662 38.2444C50.3301 38.0894 51.5499 37.8006 52.4323 37.3126C53.3559 36.8019 54.0109 36.0016 54.0109 34.9H53.0109ZM48.7609 37.25L48.8585 36.2548L43.7585 35.7548L43.6609 36.75L43.5634 37.7452L48.6634 38.2452L48.7609 37.25ZM43.6609 36.75V35.75H42.7109V36.75V37.75H43.6609V36.75ZM42.7109 36.75L42.4495 35.7848L40.0495 36.4348L40.3109 37.4L40.5724 38.3652L42.9724 37.7152L42.7109 36.75ZM40.3109 37.4L40.6583 36.4623C40.3122 36.3341 40.1423 36.1994 40.0627 36.1051C39.9981 36.0286 39.9609 35.9437 39.9609 35.8H38.9609H37.9609C37.9609 36.3897 38.1487 36.9381 38.5341 37.3949C38.9046 37.8339 39.4097 38.1326 39.9636 38.3377L40.3109 37.4ZM38.9609 35.8L39.9591 35.8611L41.0091 18.7111L40.0109 18.65L39.0128 18.5889L37.9628 35.7389L38.9609 35.8ZM40.0109 18.65H41.0109V17.9H40.0109H39.0109V18.65H40.0109ZM40.0109 17.9L41.0091 17.8401L40.7091 12.8401L39.7109 12.9L38.7127 12.9599L39.0127 17.9599L40.0109 17.9ZM39.7109 12.9H40.7109C40.7109 12.7065 40.7614 12.6616 40.7816 12.6428C40.8299 12.5976 40.9865 12.4937 41.3889 12.4418L41.2609 11.45L41.133 10.4582C40.502 10.5396 39.8836 10.7441 39.4153 11.1822C38.9188 11.6467 38.7109 12.2601 38.7109 12.9H39.7109ZM55.2824 10.95L55.4884 9.97145L55.3865 9.95H55.2824V10.95ZM57.1824 12.65L58.1242 12.9863L58.1824 12.8232V12.65H57.1824ZM55.5824 14.05L55.3965 15.0326L55.4887 15.05H55.5824V14.05ZM53.7324 12.2L52.8039 11.8286L52.7324 12.0074V12.2H53.7324ZM58.5324 19.4L59.5245 19.5258L59.5558 19.2784L59.4674 19.0453L58.5324 19.4ZM58.0824 22.95L57.0904 22.8242L57.0824 22.8869V22.95H58.0824ZM59.4824 36.05L60.3673 36.5157L60.5352 36.1967L60.461 35.844L59.4824 36.05ZM55.0824 25H54.0824V25.0271L54.0839 25.0541L55.0824 25ZM55.2824 10.95L55.0764 11.9285C55.6209 12.0432 55.9055 12.1993 56.0406 12.3202C56.1405 12.4096 56.1824 12.4947 56.1824 12.65H57.1824H58.1824C58.1824 11.9386 57.9077 11.307 57.3742 10.8298C56.876 10.384 56.2107 10.1235 55.4884 9.97145L55.2824 10.95ZM57.1824 12.65L56.2407 12.3137C56.1097 12.6804 55.9712 12.8623 55.8739 12.9474C55.7964 13.0153 55.7161 13.05 55.5824 13.05V14.05V15.05C56.1821 15.05 56.7351 14.8514 57.1909 14.4526C57.627 14.071 57.9218 13.553 58.1242 12.9863L57.1824 12.65ZM55.5824 14.05L55.7683 13.0674C55.2662 12.9724 55.0184 12.8218 54.902 12.7054C54.8091 12.6125 54.7324 12.477 54.7324 12.2H53.7324H52.7324C52.7324 12.923 52.9641 13.5959 53.4878 14.1196C53.9881 14.6199 54.6653 14.8942 55.3965 15.0326L55.5824 14.05ZM53.7324 12.2L54.6609 12.5714C54.7854 12.2601 54.9117 12.1103 54.9977 12.0409C55.068 11.9842 55.1474 11.95 55.2824 11.95V10.95V9.95C54.7175 9.95 54.1885 10.1241 53.7422 10.4841C53.3115 10.8314 53.0128 11.3066 52.8039 11.8286L53.7324 12.2ZM57.1824 17.95V18.95C57.1078 18.95 57.1039 18.9036 57.188 18.9939C57.2892 19.1026 57.4369 19.3315 57.5974 19.7547L58.5324 19.4L59.4674 19.0453C59.2613 18.5019 59.0006 18.0057 58.6518 17.6311C58.2859 17.2381 57.7904 16.95 57.1824 16.95V17.95ZM58.5324 19.4L57.5404 19.2742L57.0904 22.8242L58.0824 22.95L59.0745 23.0758L59.5245 19.5258L58.5324 19.4ZM58.0824 22.95H57.0824V25.3H58.0824H59.0824V22.95H58.0824ZM58.0824 25.3H57.0824C57.0824 28.1328 57.5643 31.7929 58.5039 36.256L59.4824 36.05L60.461 35.844C59.5339 31.4404 59.0824 27.9339 59.0824 25.3H58.0824ZM59.4824 36.05L58.5975 35.5843C58.5114 35.7478 58.4168 35.8352 58.3196 35.8896C58.2163 35.9473 58.0509 36 57.7824 36V37V38C58.3139 38 58.8319 37.8944 59.2952 37.6354C59.7647 37.3731 60.1201 36.9855 60.3673 36.5157L59.4824 36.05ZM57.7824 37V36C57.9985 36 57.9464 36.1654 57.7149 35.757C57.5039 35.3845 57.2755 34.7471 57.058 33.7805C56.6269 31.8645 56.2969 28.9322 56.081 24.9459L55.0824 25L54.0839 25.0541C54.3013 29.0678 54.6379 32.1355 55.1068 34.2195C55.3393 35.2529 55.6193 36.1155 55.9749 36.743C56.3102 37.3346 56.883 38 57.7824 38V37ZM55.0824 25H56.0824V23.25H55.0824H54.0824V25H55.0824ZM55.0824 23.25H56.0824C56.0824 21.52 56.2579 20.348 56.5371 19.6434C56.6734 19.2994 56.811 19.1276 56.9074 19.0465C56.9857 18.9806 57.0627 18.95 57.1824 18.95V17.95V16.95C56.6021 16.95 56.0666 17.1402 55.6199 17.516C55.1914 17.8765 54.8915 18.3672 54.6777 18.9066C54.2569 19.9687 54.0824 21.4466 54.0824 23.25H55.0824ZM72.1055 16.75V15.75H71.9156L71.7389 15.8196L72.1055 16.75ZM73.9555 21.3L74.8839 21.6714L74.9768 21.4393L74.9495 21.1908L73.9555 21.3ZM72.3055 22.55L72.1212 23.5329L72.2125 23.55H72.3055V22.55ZM70.7055 20.7L71.6103 20.2742L71.4279 19.8867L71.0217 19.7513L70.7055 20.7ZM69.8055 20.4L70.1217 19.4513L69.9677 19.4H69.8055V20.4ZM65.5555 23.5L64.7029 22.9774L64.5555 23.2179V23.5H65.5555ZM72.6055 26.45L73.1157 25.5899L72.9892 25.5149L72.8464 25.4795L72.6055 26.45ZM68.9555 37.7L69.1155 38.6871L69.2412 38.6667L69.3577 38.6155L68.9555 37.7ZM67.1055 38L66.9989 38.9943L67.1327 39.0086L67.2655 38.9871L67.1055 38ZM64.4555 32.25V31.25H64.3912L64.3275 31.2582L64.4555 32.25ZM66.0555 34.75L65.068 34.908L65.1319 35.3073L65.4555 35.55L66.0555 34.75ZM66.4555 35.05L65.8555 35.85L66.1221 36.05H66.4555V35.05ZM72.6055 31.15L73.4522 31.6819L73.6055 31.438V31.15H72.6055ZM66.0555 27.7L65.6795 28.6266L65.7675 28.6624L65.8608 28.6809L66.0555 27.7ZM68.0555 17.7L67.9314 16.7077L67.7522 16.7301L67.5921 16.8138L68.0555 17.7ZM72.1055 16.75V17.75C71.8846 17.75 72.0286 17.5559 72.3166 18.2641C72.5721 18.8925 72.7978 19.9198 72.9615 21.4092L73.9555 21.3L74.9495 21.1908C74.7798 19.6469 74.5305 18.3992 74.1693 17.5108C73.8406 16.7024 73.2263 15.75 72.1055 15.75V16.75ZM73.9555 21.3L73.027 20.9286C72.908 21.2262 72.7818 21.3702 72.6891 21.4404C72.6072 21.5025 72.4963 21.55 72.3055 21.55V22.55V23.55C72.8813 23.55 73.4287 23.3892 73.8968 23.0346C74.3541 22.6882 74.6696 22.2071 74.8839 21.6714L73.9555 21.3ZM72.3055 22.55L72.4898 21.5671C72.5329 21.5752 72.4516 21.5778 72.2618 21.3583C72.0777 21.1455 71.8565 20.7975 71.6103 20.2742L70.7055 20.7L69.8007 21.1258C70.0877 21.7359 70.3999 22.2629 70.7491 22.6667C71.0926 23.0638 71.5447 23.4248 72.1212 23.5329L72.3055 22.55ZM70.7055 20.7L71.0217 19.7513L70.1217 19.4513L69.8055 20.4L69.4892 21.3487L70.3892 21.6487L70.7055 20.7ZM69.8055 20.4V19.4C67.7279 19.4 66.0458 20.7864 64.7029 22.9774L65.5555 23.5L66.4081 24.0226C67.5985 22.0802 68.7497 21.4 69.8055 21.4V20.4ZM65.5555 23.5H64.5555V23.95H65.5555H66.5555V23.5H65.5555ZM65.5555 23.95H64.5555C64.5555 24.4085 64.8162 24.719 64.961 24.8627C65.1244 25.0249 65.3206 25.154 65.5026 25.2573C65.8731 25.4675 66.379 25.678 66.9838 25.8925C68.2059 26.3259 70.0065 26.8352 72.3646 27.4205L72.6055 26.45L72.8464 25.4795C70.5045 24.8981 68.7801 24.4075 67.6522 24.0075C67.082 23.8053 66.7066 23.6409 66.4896 23.5177C66.3778 23.4543 66.3538 23.4272 66.3702 23.4435C66.3806 23.4538 66.4211 23.4954 66.4621 23.5709C66.5049 23.6499 66.5555 23.7803 66.5555 23.95H65.5555ZM72.6055 26.45L72.0953 27.3101C73.8849 28.3717 74.5555 29.5122 74.5555 30.7H75.5555H76.5555C76.5555 28.5545 75.2594 26.8616 73.1157 25.5899L72.6055 26.45ZM75.5555 30.7H74.5555C74.5555 32.7937 72.8827 34.8821 68.5532 36.7845L68.9555 37.7L69.3577 38.6155C73.8283 36.6512 76.5555 34.073 76.5555 30.7H75.5555ZM68.9555 37.7L68.7954 36.7129L66.9454 37.0129L67.1055 38L67.2655 38.9871L69.1155 38.6871L68.9555 37.7ZM67.1055 38L67.212 37.0057C65.9452 36.87 65.145 36.5003 64.6626 36.0179C64.1963 35.5516 63.9055 34.8581 63.9055 33.8H62.9055H61.9055C61.9055 35.2419 62.3147 36.4984 63.2484 37.4321C64.1659 38.3497 65.4657 38.83 66.9989 38.9943L67.1055 38ZM62.9055 33.8H63.9055V33.65H62.9055H61.9055V33.8H62.9055ZM62.9055 33.65H63.9055C63.9055 33.5579 63.9202 33.5101 63.9283 33.4902C63.9351 33.4735 63.9435 33.4599 63.9633 33.4421C64.0125 33.3976 64.1742 33.2946 64.5834 33.2418L64.4555 32.25L64.3275 31.2582C63.7034 31.3387 63.0901 31.5357 62.6227 31.9579C62.1222 32.4099 61.9055 33.0136 61.9055 33.65H62.9055ZM64.4555 32.25V33.25C64.4715 33.25 64.4707 33.2512 64.4755 33.2542C64.4883 33.2623 64.5397 33.2992 64.6132 33.4141C64.7712 33.6609 64.9432 34.1278 65.068 34.908L66.0555 34.75L67.0429 34.592C66.9011 33.7055 66.6731 32.9224 66.2977 32.3359C65.8971 31.71 65.2797 31.25 64.4555 31.25V32.25ZM66.0555 34.75L65.4555 35.55L65.8555 35.85L66.4555 35.05L67.0555 34.25L66.6555 33.95L66.0555 34.75ZM66.4555 35.05V36.05H67.3055V35.05V34.05H66.4555V35.05ZM67.3055 35.05V36.05C69.723 36.05 71.7528 34.3872 73.4522 31.6819L72.6055 31.15L71.7587 30.6181C70.1915 33.1128 68.6879 34.05 67.3055 34.05V35.05ZM72.6055 31.15H73.6055V30.5H72.6055H71.6055V31.15H72.6055ZM72.6055 30.5H73.6055C73.6055 29.8528 73.2462 29.3567 72.859 29.0138C72.4715 28.6707 71.9517 28.383 71.361 28.1305C70.1724 27.6224 68.4535 27.1564 66.2501 26.7191L66.0555 27.7L65.8608 28.6809C68.0242 29.1102 69.5802 29.5443 70.5749 29.9695C71.0759 30.1837 71.3749 30.371 71.5332 30.5112C71.6918 30.6516 71.6055 30.6472 71.6055 30.5H72.6055ZM66.0555 27.7L66.4315 26.7734C64.2941 25.9061 63.6055 24.8693 63.6055 23.8H62.6055H61.6055C61.6055 26.064 63.2168 27.6273 65.6795 28.6266L66.0555 27.7ZM62.6055 23.8H63.6055C63.6055 22.248 64.9229 20.4666 68.5189 18.5861L68.0555 17.7L67.5921 16.8138C63.9213 18.7334 61.6055 21.0186 61.6055 23.8H62.6055ZM68.0555 17.7L68.1795 18.6923C69.8347 18.4854 71.2717 18.1533 72.472 17.6804L72.1055 16.75L71.7389 15.8196C70.7393 16.2134 69.4762 16.5146 67.9314 16.7077L68.0555 17.7ZM83.2875 6.65L83.497 5.6722L83.3934 5.65H83.2875V6.65ZM84.6875 8.05L85.6783 8.18511L85.6875 8.11786V8.05H84.6875ZM84.3875 10.25L83.3967 10.1149L83.3875 10.1821V10.25H84.3875ZM84.8875 15.55L83.9077 15.75L84.071 16.55H84.8875V15.55ZM84.9875 15.55V16.55H85.1351L85.2764 16.5074L84.9875 15.55ZM92.1875 13.8L92.4534 12.836L92.3229 12.8H92.1875V13.8ZM90.1875 16.95V15.95H90.0149L89.8523 16.0078L90.1875 16.95ZM84.9875 18.8L84.6523 17.8578L83.9875 18.0944V18.8H84.9875ZM86.4375 37.15L87.4137 37.3669L87.4513 37.1978L87.4298 37.026L86.4375 37.15ZM83.1375 34H84.1375V33.9039L84.1192 33.8095L83.1375 34ZM82.0375 19.45L83.0367 19.4099L82.9981 18.45H82.0375V19.45ZM81.1375 19.45L81.0738 20.448L81.1056 20.45H81.1375V19.45ZM77.4875 15.9V14.9H77.15L76.8815 15.1046L77.4875 15.9ZM77.9875 15.9L78.2399 14.9324L78.1158 14.9H77.9875V15.9ZM80.2875 16.5L80.0351 17.4676L80.1592 17.5H80.2875V16.5ZM81.8875 16.5V17.5H82.9621L82.8849 16.4282L81.8875 16.5ZM81.4375 10.25H80.4375V10.286L80.4401 10.3218L81.4375 10.25ZM83.2875 6.65L83.078 7.6278C83.436 7.70451 83.5814 7.80814 83.6304 7.85711C83.6545 7.88124 83.6875 7.91625 83.6875 8.05H84.6875H85.6875C85.6875 7.45041 85.4871 6.88543 85.0446 6.44289C84.6269 6.02519 84.0724 5.79548 83.497 5.6722L83.2875 6.65ZM84.6875 8.05L83.6967 7.91488L83.3967 10.1149L84.3875 10.25L85.3783 10.3851L85.6783 8.18511L84.6875 8.05ZM84.3875 10.25H83.3875V10.9H84.3875H85.3875V10.25H84.3875ZM84.3875 10.9H83.3875C83.3875 12.4422 83.5627 14.0596 83.9077 15.75L84.8875 15.55L85.8673 15.35C85.5456 13.7738 85.3875 12.2911 85.3875 10.9H84.3875ZM84.8875 15.55V16.55H84.9875V15.55V14.55H84.8875V15.55ZM84.9875 15.55L85.2764 16.5074C87.2017 15.9265 88.7489 15.4948 89.9237 15.2092C91.1327 14.9153 91.8566 14.8 92.1875 14.8V13.8V12.8C91.5851 12.8 90.6423 12.9763 89.4513 13.2658C88.2261 13.5636 86.64 14.0069 84.6986 14.5926L84.9875 15.55ZM92.1875 13.8L91.9216 14.764C92.3107 14.8713 92.4927 14.9944 92.5679 15.0696C92.617 15.1187 92.6375 15.1581 92.6375 15.25H93.6375H94.6375C94.6375 14.6419 94.4163 14.0896 93.9821 13.6554C93.574 13.2473 93.0309 12.9953 92.4534 12.836L92.1875 13.8ZM93.6375 15.25H92.6375C92.6375 15.3553 92.6139 15.4035 92.5936 15.4334C92.5686 15.4704 92.503 15.5442 92.333 15.628C91.9651 15.8093 91.2875 15.95 90.1875 15.95V16.95V17.95C91.3875 17.95 92.4349 17.8074 93.217 17.422C93.622 17.2225 93.9876 16.9421 94.2502 16.5541C94.5174 16.159 94.6375 15.7113 94.6375 15.25H93.6375ZM90.1875 16.95L89.8523 16.0078L84.6523 17.8578L84.9875 18.8L85.3227 19.7422L90.5227 17.8921L90.1875 16.95ZM84.9875 18.8H83.9875C83.9875 23.3608 84.4765 29.5246 85.4452 37.274L86.4375 37.15L87.4298 37.026C86.4651 29.3087 85.9875 23.2392 85.9875 18.8H84.9875ZM86.4375 37.15L85.4613 36.9331C85.3884 37.2612 85.2891 37.3882 85.2436 37.4306C85.2166 37.4558 85.1615 37.5 84.9875 37.5V38.5V39.5C85.5802 39.5 86.1501 39.3192 86.6064 38.8944C87.0443 38.4868 87.2866 37.9388 87.4137 37.3669L86.4375 37.15ZM84.9875 38.5V37.5H84.8875V38.5V39.5H84.9875V38.5ZM84.8875 38.5V37.5C84.8313 37.5 84.8077 37.4895 84.7727 37.4595C84.7186 37.4131 84.6155 37.2916 84.507 37.0126C84.2839 36.4388 84.1375 35.4642 84.1375 34H83.1375H82.1375C82.1375 35.5358 82.2828 36.8112 82.643 37.7374C82.8261 38.2084 83.0877 38.6494 83.4711 38.978C83.8735 39.323 84.3604 39.5 84.8875 39.5V38.5ZM83.1375 34L84.1192 33.8095C83.703 31.6647 83.3374 26.8945 83.0367 19.4099L82.0375 19.45L81.0383 19.4901C81.3376 26.9389 81.7053 31.8686 82.1558 34.1905L83.1375 34ZM82.0375 19.45V18.45H81.1375V19.45V20.45H82.0375V19.45ZM81.1375 19.45L81.2012 18.452C79.6745 18.3546 78.649 18.131 78.0364 17.8443C77.4538 17.5716 77.4375 17.3525 77.4375 17.25H76.4375H75.4375C75.4375 18.4141 76.2045 19.1951 77.1886 19.6557C78.1427 20.1023 79.4671 20.3454 81.0738 20.448L81.1375 19.45ZM76.4375 17.25H77.4375C77.4375 17.3824 77.3796 17.3925 77.4894 17.2514C77.5909 17.1209 77.7793 16.9348 78.0935 16.6954L77.4875 15.9L76.8815 15.1046C76.4957 15.3985 76.1591 15.7041 75.9106 16.0236C75.6704 16.3325 75.4375 16.7509 75.4375 17.25H76.4375ZM77.4875 15.9V16.9H77.9875V15.9V14.9H77.4875V15.9ZM77.9875 15.9L77.7351 16.8676L80.0351 17.4676L80.2875 16.5L80.5399 15.5324L78.2399 14.9324L77.9875 15.9ZM80.2875 16.5V17.5H81.8875V16.5V15.5H80.2875V16.5ZM81.8875 16.5L82.8849 16.4282L82.4349 10.1782L81.4375 10.25L80.4401 10.3218L80.8901 16.5718L81.8875 16.5ZM81.4375 10.25H82.4375C82.4375 9.10319 82.5902 8.39468 82.7894 8.00707C82.8816 7.82779 82.967 7.74987 83.0223 7.71396C83.0727 7.68125 83.1486 7.65 83.2875 7.65V6.65V5.65C82.8097 5.65 82.346 5.76875 81.9339 6.03604C81.5268 6.30012 81.2268 6.67221 81.0106 7.09293C80.5931 7.90531 80.4375 8.99681 80.4375 10.25H81.4375Z" fill="#3D5894" mask="url(#path-1-inside-1_12_548)"/>
</g>
<defs>
<filter id="filter0_d_12_548" x="0" y="0.5" width="97.6375" height="65.95" filterUnits="userSpaceOnUse" color-interpolation-filters="sRGB">
<feFlood flood-opacity="0" result="BackgroundImageFix"/>
<feColorMatrix in="SourceAlpha" type="matrix" values="0 0 0 0 0 0 0 0 0 0 0 0 0 0 0 0 0 0 127 0" result="hardAlpha"/>
<feOffset dy="4"/>
<feGaussianBlur stdDeviation="2"/>
<feComposite in2="hardAlpha" operator="out"/>
<feColorMatrix type="matrix" values="0 0 0 0 0 0 0 0 0 0 0 0 0 0 0 0 0 0 0.25 0"/>
<feBlend mode="normal" in2="BackgroundImageFix" result="effect1_dropShadow_12_548"/>
<feBlend mode="normal" in="SourceGraphic" in2="effect1_dropShadow_12_548" result="shape"/>
</filter>
</defs>
</svg>
